# xmcd
#
# Track frame offsets:
#	150
#	23959
#	37785
#	49424
#	68702
#	84768
#	100966
#	121666
#	138576
#	162385
#	176211
#	187850
#	207128
#	223194
#	239392
#	260092
#
# Disc length: 3693 seconds
#
# Revision: 0
# Processed by: cddbd v1.5.2PL0 Copyright (c) Steve Scherf et al.
# Submitted via: audiograbber 1.83.01
#
DISCID=e00e6b10
DTITLE=Alan Jackson and Garth Brooks - B06
DYEAR=1900
DGENRE=Country
TTITLE0=alan jackson - where were you when the woeld stopped turning
TTITLE1=alan jackson - dont rock the jukebox
TTITLE2=alan jackson - chattahooche
TTITLE3=alan jackson - gone country
TTITLE4=garth brooks - wrapped up in you
TTITLE5=garth brooks - american honky tonky tonk bar association
TTITLE6=garth brooks - shameless
TTITLE7=garth brooks - rodeo
TTITLE8=alan jackson - wv where were you when the woeld stopped turning
TTITLE9=alan jackson - dont rock the jukebox w vocals
TTITLE10=alan jackson - chattahooche w vocals
TTITLE11=alan jackson - gone country w vocals
TTITLE12=garth brooks - wrapped up in you w vocals
TTITLE13=garth brooks - merican honky tonky tonk bar association w vocals
TTITLE14=garth brooks - shameless w vocals
TTITLE15=garth brooks - rodeo w vocals
EXTD=
EXTT0=
EXTT1=
EXTT2=
EXTT3=
EXTT4=
EXTT5=
EXTT6=
EXTT7=
EXTT8=
EXTT9=
EXTT10=
EXTT11=
EXTT12=
EXTT13=
EXTT14=
EXTT15=
PLAYORDER=
